<svg xmlns="http://www.w3.org/2000/svg" width="24" height="24" viewBox="0 0 24 24">
    <path d="M0 0h24v24H0z" fill="none"/>
    <path d="M19.42 5.5L15.5 9.42l-1.42-1.42L17.58 4.1c.39-.39 1.02-.39 1.41 0l.43.43c.39.39.39 1.02 0 1.41L14.12 11l-7.07 7.07c-.39.39-1.02.39-1.41 0L3.1 16.42c-.39-.39-.39-1.02 0-1.41l7.07-7.07L7.88 5.5 5.5 7.88l2.83 2.83-4.95 4.95c-.78.78-.78 2.05 0 2.83l.71.71c.78.78 2.05.78 2.83 0l4.95-4.95 2.83 2.83L16.12 19h2.83v-2.83L19.42 12l-2.83-2.83L19.42 5.5zM6 19.6c-.1.03-.21.04-.32.04-1.1 0-2-.9-2-2 0-.11.01-.22.04-.33L6 19.6zM12 17c-1.1 0-2-.9-2-2 0-.11.01-.21.03-.32l4.29-4.29 2.83 2.83L14.83 17H12zm6-2.6l-1.5 1.5-.8-.8L16 13.3l.8.8-1.69 1.69L18.42 16l1.5-1.5V14h-2.1z"/>
</svg>
